<svg width="453" height="456" viewBox="0 0 453 456" fill="none" xmlns="http://www.w3.org/2000/svg">
<path d="M452.58 247.795V257.638C452.328 258.838 451.996 260.023 451.823 261.224C450.812 268.286 450.07 275.411 448.76 282.41C447.497 289.14 445.144 291.115 438.434 291.699C431.045 292.347 423.656 292.916 416.252 293.137C406.937 293.405 397.022 301.289 395.222 310.357C394.322 314.907 393.675 319.505 392.585 324.007C391.733 327.514 392.585 330.437 394.559 333.234C399.564 340.311 404.584 347.389 409.589 354.467C412.747 358.954 412.715 361.434 409.273 365.589C403.305 372.746 397.322 379.887 391.275 386.964C385.812 393.363 382.133 394.01 374.429 390.266C367.103 386.712 359.73 383.283 352.42 379.697C338.321 372.793 317.954 386.79 319.423 401.404C320.354 410.773 321.207 420.157 322.17 429.526C322.454 432.338 322.328 435.134 319.391 436.256C307.818 440.648 296.214 444.977 284.515 449.005C280.663 450.332 277.379 449.084 274.916 445.198C270.053 437.567 264.748 430.236 259.585 422.795C251.06 410.536 229.351 410.425 221.631 423.111C217.115 430.537 213.847 438.783 210.721 446.936C209.253 450.775 207.832 453.95 203.727 455.261H201.453C199.18 454.74 196.922 454.187 194.633 453.729C185.791 451.944 176.934 450.253 168.109 448.405C163.546 447.457 160.925 444.676 160.546 439.842C159.899 431.579 158.967 423.332 158.415 415.07C158.036 409.319 156.567 404.043 152.099 400.251C143.574 393.015 129.57 389.429 117.934 398.987C112.424 403.505 106.266 407.297 100.046 410.804C98.009 411.958 94.725 411.657 92.2621 411.041C89.7991 410.425 87.352 408.94 85.4258 407.234C78.1632 400.82 71.0427 394.247 64.0328 387.549C61.4277 385.068 61.7119 381.767 63.1802 378.765C66.5905 371.782 70.3954 364.973 73.6004 357.895C75.274 354.198 77.137 350.059 77.0265 346.173C76.7107 335.556 64.7748 319.836 48.0867 322.143C41.2504 323.091 34.3036 323.296 27.4041 323.628C21.4046 323.912 19.0838 322.301 16.8576 316.613C13.2895 307.514 9.8003 298.382 6.32689 289.25C4.32179 283.958 5.39539 280.83 10.1003 277.623C16.7471 273.089 23.2045 268.238 30.0408 264.02C45.5606 254.462 43.4923 229.011 26.4569 221.585C19.9047 218.726 13.4947 215.535 7.02157 212.47C0.532623 209.405 -0.872528 206.498 0.453681 199.531C2.20617 190.288 3.89551 181.046 5.55327 171.788C6.50056 166.464 8.90037 164.174 14.4105 163.826C22.9361 163.305 31.4617 162.831 39.9873 162.451C45.75 162.199 50.4391 159.845 53.9757 155.405C62.1224 145.184 62.3592 131.739 54.3546 119.985C50.1865 113.855 45.5606 108.026 41.0452 102.133C39.3084 99.8735 39.3242 97.9145 41.1399 95.7185C48.2446 87.2189 55.1282 78.5297 62.3908 70.1723C66.7957 65.1168 69.4955 64.7218 75.7634 67.455C81.9682 70.1565 88.1256 73.016 94.1567 76.0809C99.7141 78.8931 105.445 79.7778 111.603 79.0511C124.154 77.5818 132.554 68.2607 131.875 55.8588C131.385 46.8221 130.454 37.8011 129.791 28.7802C129.522 25.1465 130.391 21.7498 134.006 20.249C143.732 16.2361 153.489 12.2707 163.404 8.73184C169.309 6.63064 172.577 7.97351 176.397 13.266C181.339 20.091 186.155 27.0107 190.812 34.0253C196.401 42.4617 204.358 45.4002 213.942 44.1205C222.594 42.9672 229.051 38.5279 232.556 30.1546C235.793 22.3976 239.203 14.7195 242.676 7.073C245.676 0.469213 248.565 -0.873662 255.544 0.469213C264.653 2.22285 273.763 3.89749 282.889 5.55634C288.525 6.58324 290.972 8.85823 291.414 14.4035C292.078 22.6661 292.63 30.9446 292.93 39.223C293.135 44.8157 295.03 49.4446 299.166 53.1889C308.845 61.9571 322.928 62.6364 335.006 54.4844C341.147 50.3452 346.942 45.653 352.831 41.1504C355.041 39.46 356.999 39.2546 359.241 41.1346C367.75 48.2439 376.466 55.1005 384.817 62.3836C390.012 66.9178 390.391 69.3982 387.659 75.7492C384.928 82.1002 381.96 88.3564 378.897 94.5652C376.118 100.158 375.25 105.909 376.134 112.102C377.934 124.772 386.949 132.655 399.674 132.008C408.452 131.565 417.215 130.617 425.977 129.954C429.719 129.67 433.303 130.365 434.866 134.188C438.892 143.92 442.871 153.683 446.423 163.605C448.476 169.324 447.118 172.815 442.16 176.402C435.024 181.552 427.73 186.481 420.483 191.489C412.747 196.845 410.015 204.412 410.994 213.481C411.894 221.759 415.762 228.205 423.388 232.028C431.345 236.025 439.382 239.864 447.291 243.924C449.233 244.92 450.86 246.531 452.628 247.858L452.58 247.795ZM356.162 226.641C355.499 219.137 355.294 211.538 354.062 204.128C349.72 178.06 337.579 155.895 319.344 136.968C309.003 126.241 296.577 118.626 283.236 112.165C257.249 99.605 230.062 96.6506 201.927 101.611C171.582 106.967 146.652 122.165 127.707 146.163C103.93 176.275 94.5672 210.921 100.077 249.027C104.151 277.291 116.781 301.731 137.274 321.432C165.204 348.29 199.496 358.985 237.766 357.658C257.233 356.979 275.247 350.896 291.746 340.801C311.639 328.636 328.517 313.217 339.411 292.173C350.036 271.667 356.162 249.944 356.162 226.609V226.641Z" fill="#EA7824"/>
</svg>
